<?xml version="1.0" encoding="UTF-8"?>
<svg id="Layer_2" data-name="Layer 2" xmlns="http://www.w3.org/2000/svg" viewBox="0 0 157.8 105.32">
  <defs>
    <style>
      .cls-1 {
        stroke: #edeef6;
        stroke-width: 4px;
      }

      .cls-1, .cls-2 {
        fill: none;
        stroke-linecap: round;
        stroke-miterlimit: 10;
      }

      .cls-3 {
        fill: #6f79b8;
      }

      .cls-3, .cls-4 {
        stroke-width: 0px;
      }

      .cls-2 {
        stroke: #7079b7;
        stroke-width: 5px;
      }

      .cls-4 {
        fill: #ee795b;
      }
    </style>
  </defs>
  <g id="Laag_1" data-name="Laag 1">
    <g>
      <g>
        <path class="cls-3" d="m16.72,105.14c-.53,0-.97-.18-1.33-.54-.36-.36-.54-.8-.54-1.33v-24.37c0-.55.18-1,.54-1.35.36-.35.8-.52,1.33-.52h7.2c1.8,0,3.4.4,4.79,1.19,1.39.79,2.48,1.89,3.26,3.29.78,1.4,1.17,3.02,1.17,4.84s-.39,3.31-1.17,4.68-1.87,2.44-3.26,3.2c-1.39.77-2.99,1.15-4.79,1.15h-5.33v7.88c0,.53-.17.97-.52,1.33-.35.36-.8.54-1.35.54Zm1.87-13.21h5.33c1.1,0,2.08-.24,2.92-.72s1.5-1.14,1.98-1.98c.48-.84.72-1.8.72-2.88,0-1.15-.24-2.17-.72-3.04-.48-.88-1.14-1.57-1.98-2.07s-1.81-.76-2.92-.76h-5.33v11.45Z"/>
        <path class="cls-3" d="m45.19,105.32c-1.66,0-3.14-.35-4.45-1.06-1.31-.71-2.34-1.75-3.1-3.11-.76-1.37-1.13-3.05-1.13-5.04v-8.86c0-.53.17-.97.52-1.31s.79-.52,1.31-.52.97.17,1.31.52c.35.35.52.79.52,1.31v8.86c0,1.34.25,2.45.76,3.33.5.88,1.19,1.52,2.05,1.94s1.84.63,2.92.63,1.95-.2,2.75-.61c.8-.41,1.45-.96,1.93-1.66.48-.7.72-1.48.72-2.34h2.27c0,1.49-.37,2.83-1.1,4.03s-1.73,2.15-2.99,2.84c-1.26.7-2.69,1.04-4.3,1.04Zm7.96-.18c-.53,0-.97-.17-1.31-.52-.35-.35-.52-.79-.52-1.31v-16.06c0-.55.17-1,.52-1.33.35-.34.79-.5,1.31-.5s1,.17,1.33.5.5.78.5,1.33v16.06c0,.53-.17.97-.5,1.31-.34.35-.78.52-1.33.52Z"/>
        <path class="cls-3" d="m66.15,105.14c-1.06,0-1.99-.29-2.81-.86-.82-.58-1.45-1.36-1.91-2.36-.46-1-.68-2.14-.68-3.44v-19.66c0-.53.17-.96.5-1.3.33-.34.77-.5,1.3-.5s.96.17,1.3.5c.34.34.5.77.5,1.3v19.66c0,.89.17,1.62.5,2.2s.77.86,1.3.86h.9c.48,0,.87.17,1.17.5.3.34.45.77.45,1.3s-.23.96-.68,1.3-1.04.5-1.76.5h-.07Z"/>
        <path class="cls-3" d="m79.43,105.28c-1.68,0-3.23-.26-4.66-.77-1.43-.52-2.54-1.17-3.33-1.96-.36-.38-.51-.82-.45-1.31.06-.49.29-.89.7-1.21.48-.38.95-.54,1.42-.49s.87.27,1.21.63c.41.46,1.06.88,1.96,1.28.9.4,1.9.59,3.01.59,1.39,0,2.45-.23,3.19-.68.73-.46,1.11-1.04,1.13-1.76.02-.72-.32-1.34-1.03-1.87-.71-.53-2-.96-3.87-1.3-2.42-.48-4.18-1.2-5.27-2.16-1.09-.96-1.64-2.14-1.64-3.53,0-1.22.36-2.24,1.08-3.04.72-.8,1.64-1.4,2.77-1.8,1.13-.4,2.3-.59,3.53-.59,1.58,0,2.99.25,4.21.76,1.22.5,2.2,1.2,2.92,2.09.34.38.49.79.47,1.21-.02.42-.23.77-.61,1.06-.38.26-.84.35-1.37.25-.53-.1-.97-.31-1.33-.65-.6-.58-1.25-.97-1.94-1.19-.7-.22-1.5-.32-2.41-.32-1.06,0-1.95.18-2.68.54-.73.36-1.1.89-1.1,1.58,0,.43.11.82.34,1.17.23.35.68.66,1.35.94.67.28,1.66.55,2.95.81,1.8.36,3.22.82,4.27,1.37s1.79,1.19,2.25,1.93.68,1.58.68,2.54c0,1.1-.29,2.1-.88,2.99-.59.89-1.45,1.6-2.59,2.12-1.14.53-2.56.79-4.27.79Z"/>
        <path class="cls-4" d="m100.02,105.28c-1.75,0-3.32-.44-4.72-1.31-1.39-.88-2.49-2.06-3.29-3.56-.8-1.5-1.21-3.2-1.21-5.09s.44-3.6,1.31-5.11c.88-1.51,2.06-2.71,3.56-3.58,1.5-.88,3.19-1.31,5.06-1.31s3.55.44,5.04,1.31c1.49.88,2.67,2.07,3.55,3.58.88,1.51,1.31,3.22,1.31,5.11h-1.4c0,1.9-.4,3.59-1.21,5.09-.8,1.5-1.9,2.69-3.29,3.56-1.39.88-2.96,1.31-4.72,1.31Zm.72-3.24c1.22,0,2.32-.29,3.28-.88.96-.59,1.71-1.39,2.27-2.41.55-1.02.83-2.17.83-3.44s-.28-2.45-.83-3.47c-.55-1.02-1.31-1.82-2.27-2.41-.96-.59-2.05-.88-3.28-.88s-2.29.29-3.26.88-1.74,1.39-2.3,2.41c-.56,1.02-.85,2.18-.85,3.47s.28,2.42.85,3.44c.56,1.02,1.33,1.82,2.3,2.41s2.06.88,3.26.88Zm8.06,3.13c-.53,0-.97-.17-1.31-.52-.35-.35-.52-.79-.52-1.31v-5.51l.68-3.82,2.99,1.3v8.03c0,.53-.17.97-.52,1.31-.35.35-.79.52-1.31.52Z"/>
        <path class="cls-4" d="m118.31,82.24c-.65,0-1.21-.23-1.67-.7-.47-.47-.7-1.03-.7-1.67s.23-1.21.7-1.67c.47-.47,1.03-.7,1.67-.7s1.21.23,1.67.7c.47.47.7,1.03.7,1.67s-.23,1.21-.7,1.67c-.47.47-1.03.7-1.67.7Zm0,22.9c-.53,0-.97-.17-1.31-.52-.35-.35-.52-.79-.52-1.31v-16.02c0-.55.17-1,.52-1.33.35-.33.79-.5,1.31-.5s1,.17,1.33.5c.34.34.5.78.5,1.33v16.02c0,.53-.17.97-.5,1.31-.34.35-.78.52-1.33.52Z"/>
        <path class="cls-4" d="m135.91,105.28c-1.87,0-3.56-.44-5.06-1.31-1.5-.88-2.69-2.07-3.56-3.58s-1.31-3.22-1.31-5.11.4-3.59,1.21-5.09c.8-1.5,1.9-2.69,3.29-3.56,1.39-.88,2.96-1.31,4.72-1.31,1.42,0,2.72.29,3.92.88,1.2.59,2.21,1.39,3.02,2.39v-9.72c0-.55.17-1,.52-1.33.35-.34.79-.5,1.31-.5s1,.17,1.33.5c.33.34.5.78.5,1.33v16.42c0,1.9-.44,3.6-1.31,5.11s-2.06,2.71-3.55,3.58-3.17,1.31-5.04,1.31Zm0-3.24c1.22,0,2.32-.29,3.28-.88.96-.59,1.71-1.4,2.27-2.43.55-1.03.83-2.18.83-3.46s-.28-2.45-.83-3.46c-.55-1.01-1.31-1.81-2.27-2.39-.96-.59-2.05-.88-3.28-.88s-2.29.29-3.26.88-1.74,1.39-2.3,2.39c-.56,1.01-.85,2.16-.85,3.46s.28,2.42.85,3.46c.56,1.03,1.33,1.84,2.3,2.43s2.06.88,3.26.88Z"/>
      </g>
      <path class="cls-2" d="m2.5,30.45l21.18-.34c.2,0,.38-.13.45-.31L34.37,2.81c.18-.47.86-.4.93.1l9.42,58.38c.08.49.76.56.94.09l16.56-44.79c.17-.45.81-.41.93.05l7.56,29.3c.11.43.68.5.9.11l9.27-16.68c.09-.16.25-.25.43-.25l19.71.32"/>
      <path class="cls-4" d="m127.54,8.82c-1.59-1.42-3.01-2.82-4.55-4.05-4.81-3.88-10.13-5.16-15.81-2.22-5.83,3.02-9.68,7.64-9.89,14.54-.17,5.68,1.59,10.85,4.8,15.48,6.66,9.58,15.77,16.65,24.74,23.84.32.25,1.32.09,1.69-.24,5.91-5.11,11.91-10.12,17.6-15.47,4.56-4.29,8.42-9.22,10.33-15.35,1.76-5.64,2.2-11.23-1.33-16.48-5.93-8.8-15.49-10.29-23.7-3.64-1.35,1.1-2.57,2.36-3.89,3.58Z"/>
      <g>
        <line class="cls-1" x1="118.16" y1="29.48" x2="136.82" y2="29.48"/>
        <line class="cls-1" x1="127.49" y1="38.81" x2="127.49" y2="20.15"/>
      </g>
    </g>
  </g>
</svg>